<?xml version="1.0" encoding="UTF-8" standalone="no"?>
<!DOCTYPE svg PUBLIC "-//W3C//DTD SVG 1.1//EN" "http://www.w3.org/Graphics/SVG/1.1/DTD/svg11.dtd">
<svg width="100%" height="100%" viewBox="0 0 20 20" version="1.1" xmlns="http://www.w3.org/2000/svg" xmlns:xlink="http://www.w3.org/1999/xlink" xml:space="preserve" xmlns:serif="http://www.serif.com/" style="fill-rule:evenodd;clip-rule:evenodd;stroke-linejoin:round;stroke-miterlimit:2;">
    <g transform="matrix(0.997684,0,0,0.997684,-1.00596,-0.268035)">
        <circle cx="11.032" cy="10.292" r="10.023"/>
    </g>
    <path d="M5.274,6.915C5.474,6.915 5.668,6.944 5.85,7.001C6.54,6.228 7.305,5.524 8.133,4.901C8.098,4.755 8.079,4.602 8.079,4.446C8.079,4.229 8.115,4.02 8.181,3.825C7.252,3.161 6.244,2.602 5.17,2.171C4.165,2.792 3.288,3.602 2.588,4.552C3.107,5.472 3.724,6.329 4.426,7.109C4.682,6.985 4.969,6.915 5.274,6.915ZM3.316,8.872C3.316,8.597 3.374,8.335 3.475,8.099C2.847,7.407 2.278,6.663 1.78,5.87C1.155,7.112 0.8,8.515 0.8,10.001C0.8,11.72 1.274,13.329 2.095,14.706C2.389,13.052 2.946,11.487 3.715,10.054C3.465,9.726 3.316,9.315 3.316,8.872ZM10.036,2.489C10.553,2.489 11.021,2.69 11.372,3.018C12.393,2.579 13.468,2.241 14.587,2.026C13.236,1.247 11.67,0.8 10,0.8C8.861,0.8 7.771,1.009 6.764,1.388C7.563,1.783 8.325,2.243 9.041,2.763C9.333,2.589 9.672,2.489 10.036,2.489ZM12.962,11.708C13.084,11.454 13.257,11.229 13.471,11.052C12.893,9.275 11.978,7.648 10.799,6.249C10.565,6.349 10.307,6.403 10.035,6.403C9.61,6.403 9.219,6.266 8.898,6.038C8.188,6.577 7.531,7.181 6.934,7.841C7.122,8.14 7.231,8.493 7.231,8.872C7.231,9.075 7.2,9.272 7.141,9.458C8.858,10.604 10.835,11.392 12.962,11.708ZM15.501,14.351C15.527,14.722 15.542,15.095 15.542,15.472C15.542,16.136 15.5,16.79 15.42,17.433C16.98,16.294 18.168,14.675 18.767,12.794C18.057,12.966 17.329,13.089 16.586,13.159C16.413,13.696 16.014,14.128 15.501,14.351ZM12.504,13.024C10.232,12.647 8.127,11.78 6.294,10.54C5.996,10.722 5.647,10.829 5.273,10.829C5.134,10.829 5.001,10.815 4.871,10.788C3.994,12.45 3.433,14.305 3.272,16.272C4.148,17.212 5.216,17.969 6.417,18.477C7.909,16.184 9.993,14.288 12.504,13.024ZM16.176,3.181C14.701,3.324 13.293,3.695 11.983,4.249C11.989,4.315 11.993,4.38 11.993,4.446C11.993,4.755 11.919,5.046 11.792,5.305C13.103,6.844 14.119,8.635 14.761,10.596C15.558,10.612 16.238,11.098 16.531,11.791C17.417,11.701 18.279,11.531 19.109,11.287C19.169,10.867 19.201,10.437 19.201,10C19.2,7.296 18.034,4.864 16.176,3.181ZM13.489,14.069C11.145,15.167 9.185,16.858 7.766,18.925C8.481,19.104 9.229,19.2 10,19.2C11.387,19.2 12.702,18.891 13.882,18.341C14.072,17.413 14.172,16.454 14.172,15.472C14.172,15.117 14.156,14.765 14.129,14.417C13.893,14.341 13.676,14.224 13.489,14.069Z" style="fill:white;fill-rule:nonzero;"/>
</svg>
