<?xml version="1.0" encoding="UTF-8" standalone="no"?>
<!DOCTYPE svg PUBLIC "-//W3C//DTD SVG 1.1//EN" "http://www.w3.org/Graphics/SVG/1.1/DTD/svg11.dtd">
<svg width="100%" height="100%" viewBox="0 0 200 75" version="1.1" xmlns="http://www.w3.org/2000/svg" xmlns:xlink="http://www.w3.org/1999/xlink" xml:space="preserve" xmlns:serif="http://www.serif.com/" style="fill-rule:evenodd;clip-rule:evenodd;stroke-linejoin:round;stroke-miterlimit:2;">
    <g transform="matrix(1.00414,0,0,1.04681,-2.07242,-1.18956)">
        <path d="M201.24,19.048C201.24,9.162 192.873,1.136 182.567,1.136L20.737,1.136C10.431,1.136 2.064,9.162 2.064,19.048L2.064,54.871C2.064,64.757 10.431,72.783 20.737,72.783L182.567,72.783C192.873,72.783 201.24,64.757 201.24,54.871L201.24,19.048Z"/>
    </g>
    <g transform="matrix(1.72985,0,0,1.72985,41.224,46.9897)">
        <path d="M0,-10.724C-0.299,-10.275 -0.459,-9.748 -0.458,-9.208C-0.457,-8.486 -0.169,-7.793 0.342,-7.282C0.853,-6.772 1.546,-6.485 2.269,-6.485C2.808,-6.485 3.335,-6.645 3.784,-6.945C4.232,-7.244 4.582,-7.67 4.788,-8.169C4.994,-8.667 5.048,-9.216 4.943,-9.745C4.837,-10.274 4.577,-10.759 4.196,-11.141C3.814,-11.522 3.328,-11.781 2.799,-11.886C2.27,-11.991 1.721,-11.936 1.223,-11.73C0.725,-11.523 0.299,-11.173 0,-10.724M5.281,-11.225C5.68,-10.628 5.892,-9.926 5.892,-9.208C5.889,-8.247 5.506,-7.326 4.826,-6.646C4.145,-5.966 3.224,-5.584 2.262,-5.582C1.544,-5.582 0.843,-5.795 0.246,-6.194C-0.351,-6.593 -0.816,-7.16 -1.091,-7.823C-1.365,-8.487 -1.437,-9.217 -1.297,-9.921C-1.157,-10.625 -0.811,-11.271 -0.303,-11.779C0.205,-12.286 0.852,-12.632 1.556,-12.771C2.26,-12.911 2.99,-12.839 3.653,-12.563C4.316,-12.288 4.883,-11.823 5.281,-11.225M-7.843,1.977L-9.62,1.242C-9.362,1.78 -8.953,2.23 -8.444,2.539C-7.934,2.848 -7.346,3.002 -6.75,2.982C-6.155,2.962 -5.578,2.77 -5.09,2.427C-4.602,2.085 -4.225,1.608 -4.004,1.055C-3.782,0.502 -3.727,-0.104 -3.844,-0.688C-3.961,-1.272 -4.246,-1.81 -4.663,-2.235C-5.081,-2.66 -5.613,-2.954 -6.195,-3.082C-6.777,-3.21 -7.384,-3.165 -7.941,-2.954L-6.108,-2.194C-5.57,-1.954 -5.147,-1.513 -4.93,-0.966C-4.712,-0.418 -4.718,0.192 -4.944,0.736C-5.17,1.28 -5.6,1.713 -6.142,1.945C-6.683,2.176 -7.294,2.186 -7.843,1.974L-7.843,1.977ZM11.842,-15.827L11.585,-15.827L11.585,-16.286L11.845,-16.286C12.045,-16.286 12.114,-16.197 12.114,-16.068C12.114,-16.034 12.106,-16 12.092,-15.969C12.077,-15.938 12.057,-15.91 12.031,-15.888C12.005,-15.865 11.975,-15.848 11.943,-15.837C11.91,-15.827 11.876,-15.823 11.842,-15.827M12.333,-16.071C12.333,-16.27 12.225,-16.46 11.855,-16.46L11.373,-16.46L11.373,-15.076L11.576,-15.076L11.576,-15.624L11.874,-15.624L12.152,-15.076L12.399,-15.076L12.083,-15.688C12.157,-15.72 12.22,-15.774 12.265,-15.842C12.309,-15.91 12.333,-15.99 12.333,-16.071M10.862,-15.091C10.73,-15.284 10.658,-15.511 10.654,-15.745L10.642,-15.745C10.636,-15.904 10.662,-16.062 10.72,-16.21C10.778,-16.359 10.866,-16.493 10.978,-16.606C11.091,-16.719 11.225,-16.807 11.373,-16.865C11.521,-16.924 11.68,-16.951 11.839,-16.945C12.072,-16.945 12.301,-16.876 12.495,-16.746C12.69,-16.617 12.841,-16.433 12.931,-16.217C13.022,-16.002 13.046,-15.764 13.002,-15.535C12.957,-15.306 12.846,-15.095 12.682,-14.929C12.518,-14.762 12.308,-14.648 12.079,-14.601C11.851,-14.553 11.613,-14.575 11.396,-14.662C11.18,-14.749 10.994,-14.898 10.862,-15.091M12.994,-14.97C13.148,-15.199 13.231,-15.469 13.232,-15.745C13.238,-15.93 13.206,-16.114 13.138,-16.286C13.07,-16.458 12.968,-16.615 12.837,-16.746C12.707,-16.877 12.551,-16.98 12.379,-17.05C12.208,-17.119 12.024,-17.152 11.839,-17.148C11.563,-17.148 11.293,-17.067 11.063,-16.914C10.833,-16.761 10.653,-16.544 10.547,-16.289C10.441,-16.034 10.412,-15.754 10.465,-15.483C10.518,-15.212 10.65,-14.963 10.845,-14.767C11.039,-14.571 11.288,-14.437 11.558,-14.382C11.829,-14.327 12.11,-14.354 12.365,-14.459C12.62,-14.563 12.839,-14.741 12.994,-14.97M-12.295,-16.107C-9.628,-18.569 -6.133,-19.936 -2.504,-19.938L-2.497,-19.915C0.19,-19.916 2.824,-19.167 5.108,-17.752C7.393,-16.338 9.238,-14.314 10.435,-11.908C11.632,-9.502 12.134,-6.81 11.885,-4.135C11.635,-1.459 10.645,1.094 9.024,3.237C7.403,5.38 5.216,7.028 2.709,7.996C0.202,8.965 -2.525,9.214 -5.165,8.717C-7.806,8.22 -10.256,6.996 -12.239,5.182C-14.222,3.369 -15.66,1.038 -16.39,-1.548L-10.855,0.742C-10.653,1.734 -10.089,2.616 -9.274,3.217C-8.459,3.817 -7.45,4.094 -6.443,3.994C-5.435,3.893 -4.501,3.422 -3.821,2.673C-3.14,1.923 -2.762,0.947 -2.76,-0.066L-2.76,-0.259L2.148,-3.761L2.262,-3.761C3.34,-3.761 4.393,-4.081 5.288,-4.679C6.184,-5.278 6.882,-6.129 7.295,-7.124C7.707,-8.119 7.815,-9.214 7.605,-10.271C7.394,-11.328 6.876,-12.298 6.114,-13.06C5.352,-13.822 4.382,-14.34 3.325,-14.551C2.268,-14.761 1.173,-14.653 0.178,-14.241C-0.817,-13.828 -1.668,-13.13 -2.267,-12.234C-2.865,-11.339 -3.185,-10.286 -3.185,-9.208L-3.185,-9.151L-6.627,-4.164L-6.855,-4.164C-7.676,-4.164 -8.478,-3.916 -9.154,-3.451L-16.894,-6.653C-16.603,-10.27 -14.961,-13.646 -12.295,-16.107" style="fill:white;"/>
    </g>
    <g transform="matrix(1,0,0,1,0.718757,-10.7321)">
        <g transform="matrix(18.75,0,0,18.75,75.7363,45.8471)">
            <path d="M0.197,-0.648L0.197,-0.081L0.316,-0.081C0.417,-0.081 0.49,-0.104 0.537,-0.149C0.584,-0.195 0.607,-0.267 0.607,-0.365C0.607,-0.463 0.584,-0.534 0.537,-0.58C0.49,-0.625 0.417,-0.648 0.316,-0.648L0.197,-0.648ZM0.098,-0.729L0.301,-0.729C0.442,-0.729 0.546,-0.7 0.612,-0.641C0.678,-0.582 0.711,-0.49 0.711,-0.365C0.711,-0.24 0.678,-0.147 0.611,-0.088C0.545,-0.029 0.441,-0 0.301,-0L0.098,-0L0.098,-0.729Z" style="fill:white;fill-rule:nonzero;"/>
        </g>
        <g transform="matrix(18.75,0,0,18.75,90.1742,45.8471)">
            <path d="M0.306,-0.484C0.258,-0.484 0.22,-0.465 0.192,-0.427C0.164,-0.39 0.15,-0.338 0.15,-0.273C0.15,-0.208 0.164,-0.156 0.192,-0.118C0.219,-0.081 0.258,-0.062 0.306,-0.062C0.354,-0.062 0.392,-0.081 0.42,-0.119C0.448,-0.156 0.462,-0.208 0.462,-0.273C0.462,-0.338 0.448,-0.389 0.42,-0.427C0.392,-0.465 0.354,-0.484 0.306,-0.484ZM0.306,-0.56C0.384,-0.56 0.446,-0.535 0.49,-0.484C0.535,-0.433 0.557,-0.363 0.557,-0.273C0.557,-0.183 0.535,-0.113 0.49,-0.062C0.446,-0.011 0.384,0.014 0.306,0.014C0.228,0.014 0.166,-0.011 0.122,-0.062C0.077,-0.113 0.055,-0.183 0.055,-0.273C0.055,-0.363 0.077,-0.433 0.122,-0.484C0.166,-0.535 0.228,-0.56 0.306,-0.56Z" style="fill:white;fill-rule:nonzero;"/>
        </g>
        <g transform="matrix(18.75,0,0,18.75,101.646,45.8471)">
            <path d="M0.042,-0.547L0.132,-0.547L0.244,-0.12L0.356,-0.547L0.462,-0.547L0.574,-0.12L0.686,-0.547L0.776,-0.547L0.633,-0L0.527,-0L0.409,-0.448L0.291,-0L0.185,-0L0.042,-0.547Z" style="fill:white;fill-rule:nonzero;"/>
        </g>
        <g transform="matrix(18.75,0,0,18.75,116.981,45.8471)">
            <path d="M0.549,-0.33L0.549,-0L0.459,-0L0.459,-0.327C0.459,-0.379 0.449,-0.418 0.429,-0.443C0.409,-0.469 0.378,-0.482 0.338,-0.482C0.289,-0.482 0.251,-0.466 0.223,-0.436C0.195,-0.405 0.181,-0.362 0.181,-0.309L0.181,-0L0.091,-0L0.091,-0.547L0.181,-0.547L0.181,-0.462C0.203,-0.495 0.228,-0.519 0.257,-0.536C0.286,-0.552 0.32,-0.56 0.358,-0.56C0.421,-0.56 0.468,-0.541 0.5,-0.502C0.533,-0.463 0.549,-0.406 0.549,-0.33Z" style="fill:white;fill-rule:nonzero;"/>
        </g>
        <g transform="matrix(18.75,0,0,18.75,128.864,45.8471)">
            <rect x="0.094" y="-0.76" width="0.09" height="0.76" style="fill:white;fill-rule:nonzero;"/>
        </g>
        <g transform="matrix(18.75,0,0,18.75,134.074,45.8471)">
            <path d="M0.306,-0.484C0.258,-0.484 0.22,-0.465 0.192,-0.427C0.164,-0.39 0.15,-0.338 0.15,-0.273C0.15,-0.208 0.164,-0.156 0.192,-0.118C0.219,-0.081 0.258,-0.062 0.306,-0.062C0.354,-0.062 0.392,-0.081 0.42,-0.119C0.448,-0.156 0.462,-0.208 0.462,-0.273C0.462,-0.338 0.448,-0.389 0.42,-0.427C0.392,-0.465 0.354,-0.484 0.306,-0.484ZM0.306,-0.56C0.384,-0.56 0.446,-0.535 0.49,-0.484C0.535,-0.433 0.557,-0.363 0.557,-0.273C0.557,-0.183 0.535,-0.113 0.49,-0.062C0.446,-0.011 0.384,0.014 0.306,0.014C0.228,0.014 0.166,-0.011 0.122,-0.062C0.077,-0.113 0.055,-0.183 0.055,-0.273C0.055,-0.363 0.077,-0.433 0.122,-0.484C0.166,-0.535 0.228,-0.56 0.306,-0.56Z" style="fill:white;fill-rule:nonzero;"/>
        </g>
        <g transform="matrix(18.75,0,0,18.75,145.545,45.8471)">
            <path d="M0.343,-0.275C0.27,-0.275 0.22,-0.267 0.192,-0.25C0.164,-0.233 0.15,-0.205 0.15,-0.165C0.15,-0.133 0.16,-0.108 0.181,-0.089C0.202,-0.07 0.231,-0.061 0.267,-0.061C0.317,-0.061 0.357,-0.079 0.387,-0.114C0.417,-0.149 0.432,-0.196 0.432,-0.255L0.432,-0.275L0.343,-0.275ZM0.522,-0.312L0.522,-0L0.432,-0L0.432,-0.083C0.412,-0.05 0.386,-0.025 0.355,-0.01C0.325,0.006 0.287,0.014 0.243,0.014C0.187,0.014 0.143,-0.002 0.11,-0.033C0.077,-0.064 0.06,-0.106 0.06,-0.159C0.06,-0.221 0.081,-0.267 0.122,-0.298C0.163,-0.33 0.224,-0.345 0.306,-0.345L0.432,-0.345L0.432,-0.354C0.432,-0.395 0.419,-0.427 0.391,-0.45C0.364,-0.473 0.326,-0.484 0.277,-0.484C0.246,-0.484 0.215,-0.48 0.186,-0.473C0.156,-0.465 0.127,-0.454 0.1,-0.439L0.1,-0.522C0.133,-0.535 0.165,-0.544 0.196,-0.551C0.227,-0.557 0.257,-0.56 0.286,-0.56C0.365,-0.56 0.424,-0.54 0.463,-0.499C0.502,-0.458 0.522,-0.395 0.522,-0.312Z" style="fill:white;fill-rule:nonzero;"/>
        </g>
        <g transform="matrix(18.75,0,0,18.75,157.035,45.8471)">
            <path d="M0.454,-0.464L0.454,-0.76L0.544,-0.76L0.544,-0L0.454,-0L0.454,-0.082C0.435,-0.049 0.411,-0.025 0.383,-0.01C0.354,0.006 0.319,0.014 0.279,0.014C0.213,0.014 0.159,-0.012 0.117,-0.065C0.076,-0.118 0.055,-0.187 0.055,-0.273C0.055,-0.359 0.076,-0.428 0.117,-0.481C0.159,-0.534 0.213,-0.56 0.279,-0.56C0.319,-0.56 0.354,-0.552 0.383,-0.536C0.411,-0.521 0.435,-0.496 0.454,-0.464ZM0.148,-0.273C0.148,-0.207 0.162,-0.155 0.189,-0.117C0.216,-0.08 0.253,-0.061 0.301,-0.061C0.348,-0.061 0.386,-0.08 0.413,-0.117C0.44,-0.155 0.454,-0.207 0.454,-0.273C0.454,-0.339 0.44,-0.391 0.413,-0.428C0.386,-0.466 0.348,-0.485 0.301,-0.485C0.253,-0.485 0.216,-0.466 0.189,-0.428C0.162,-0.391 0.148,-0.339 0.148,-0.273Z" style="fill:white;fill-rule:nonzero;"/>
        </g>
        <g transform="matrix(18.75,0,0,18.75,75.7363,64.5971)">
            <path d="M0.371,-0.76L0.371,-0.685L0.285,-0.685C0.253,-0.685 0.231,-0.679 0.218,-0.666C0.205,-0.653 0.199,-0.629 0.199,-0.595L0.199,-0.547L0.347,-0.547L0.347,-0.477L0.199,-0.477L0.199,-0L0.109,-0L0.109,-0.477L0.023,-0.477L0.023,-0.547L0.109,-0.547L0.109,-0.585C0.109,-0.646 0.123,-0.69 0.151,-0.718C0.18,-0.746 0.225,-0.76 0.286,-0.76L0.371,-0.76Z" style="fill:white;fill-rule:nonzero;"/>
        </g>
        <g transform="matrix(18.75,0,0,18.75,82.3373,64.5971)">
            <path d="M0.411,-0.463C0.401,-0.469 0.39,-0.473 0.378,-0.476C0.366,-0.479 0.353,-0.48 0.339,-0.48C0.288,-0.48 0.249,-0.463 0.222,-0.43C0.195,-0.397 0.181,-0.35 0.181,-0.288L0.181,-0L0.091,-0L0.091,-0.547L0.181,-0.547L0.181,-0.462C0.2,-0.495 0.225,-0.52 0.255,-0.536C0.285,-0.552 0.322,-0.56 0.365,-0.56C0.371,-0.56 0.378,-0.56 0.386,-0.559C0.393,-0.558 0.402,-0.557 0.411,-0.555L0.411,-0.463Z" style="fill:white;fill-rule:nonzero;"/>
        </g>
        <g transform="matrix(18.75,0,0,18.75,89.634,64.5971)">
            <path d="M0.306,-0.484C0.258,-0.484 0.22,-0.465 0.192,-0.427C0.164,-0.39 0.15,-0.338 0.15,-0.273C0.15,-0.208 0.164,-0.156 0.192,-0.118C0.219,-0.081 0.258,-0.062 0.306,-0.062C0.354,-0.062 0.392,-0.081 0.42,-0.119C0.448,-0.156 0.462,-0.208 0.462,-0.273C0.462,-0.338 0.448,-0.389 0.42,-0.427C0.392,-0.465 0.354,-0.484 0.306,-0.484ZM0.306,-0.56C0.384,-0.56 0.446,-0.535 0.49,-0.484C0.535,-0.433 0.557,-0.363 0.557,-0.273C0.557,-0.183 0.535,-0.113 0.49,-0.062C0.446,-0.011 0.384,0.014 0.306,0.014C0.228,0.014 0.166,-0.011 0.122,-0.062C0.077,-0.113 0.055,-0.183 0.055,-0.273C0.055,-0.363 0.077,-0.433 0.122,-0.484C0.166,-0.535 0.228,-0.56 0.306,-0.56Z" style="fill:white;fill-rule:nonzero;"/>
        </g>
        <g transform="matrix(18.75,0,0,18.75,101.106,64.5971)">
            <path d="M0.52,-0.442C0.542,-0.482 0.569,-0.512 0.601,-0.531C0.632,-0.55 0.669,-0.56 0.711,-0.56C0.768,-0.56 0.812,-0.54 0.843,-0.5C0.874,-0.46 0.889,-0.404 0.889,-0.33L0.889,-0L0.799,-0L0.799,-0.327C0.799,-0.38 0.79,-0.418 0.771,-0.444C0.752,-0.469 0.724,-0.482 0.686,-0.482C0.639,-0.482 0.603,-0.466 0.576,-0.436C0.549,-0.405 0.535,-0.362 0.535,-0.309L0.535,-0L0.445,-0L0.445,-0.327C0.445,-0.38 0.436,-0.419 0.417,-0.444C0.398,-0.469 0.37,-0.482 0.331,-0.482C0.285,-0.482 0.249,-0.466 0.222,-0.435C0.195,-0.404 0.181,-0.362 0.181,-0.309L0.181,-0L0.091,-0L0.091,-0.547L0.181,-0.547L0.181,-0.462C0.202,-0.495 0.226,-0.52 0.255,-0.536C0.284,-0.552 0.318,-0.56 0.357,-0.56C0.397,-0.56 0.43,-0.55 0.458,-0.53C0.486,-0.51 0.507,-0.48 0.52,-0.442Z" style="fill:white;fill-rule:nonzero;"/>
        </g>
        <g transform="matrix(18.75,0,0,18.75,125.33,64.5971)">
            <path d="M0.535,-0.705L0.535,-0.609C0.498,-0.627 0.462,-0.64 0.429,-0.649C0.396,-0.658 0.364,-0.662 0.333,-0.662C0.279,-0.662 0.238,-0.652 0.209,-0.631C0.18,-0.61 0.165,-0.58 0.165,-0.542C0.165,-0.51 0.175,-0.485 0.194,-0.469C0.213,-0.453 0.25,-0.439 0.304,-0.429L0.364,-0.417C0.437,-0.403 0.492,-0.378 0.527,-0.343C0.562,-0.308 0.579,-0.26 0.579,-0.201C0.579,-0.131 0.555,-0.077 0.508,-0.041C0.461,-0.004 0.391,0.014 0.3,0.014C0.265,0.014 0.229,0.01 0.19,0.002C0.151,-0.005 0.111,-0.017 0.069,-0.032L0.069,-0.134C0.109,-0.111 0.148,-0.094 0.187,-0.083C0.225,-0.072 0.263,-0.066 0.3,-0.066C0.356,-0.066 0.4,-0.077 0.43,-0.099C0.461,-0.121 0.476,-0.153 0.476,-0.194C0.476,-0.23 0.465,-0.258 0.443,-0.278C0.421,-0.298 0.385,-0.313 0.335,-0.323L0.275,-0.335C0.201,-0.35 0.148,-0.373 0.115,-0.404C0.082,-0.435 0.066,-0.479 0.066,-0.534C0.066,-0.599 0.089,-0.649 0.134,-0.687C0.179,-0.724 0.242,-0.742 0.322,-0.742C0.356,-0.742 0.391,-0.739 0.426,-0.733C0.462,-0.727 0.498,-0.717 0.535,-0.705Z" style="fill:white;fill-rule:nonzero;"/>
        </g>
        <g transform="matrix(18.75,0,0,18.75,137.232,64.5971)">
            <path d="M0.183,-0.702L0.183,-0.547L0.368,-0.547L0.368,-0.477L0.183,-0.477L0.183,-0.18C0.183,-0.136 0.189,-0.107 0.201,-0.094C0.214,-0.082 0.238,-0.075 0.276,-0.075L0.368,-0.075L0.368,-0L0.276,-0C0.207,-0 0.159,-0.013 0.132,-0.039C0.106,-0.065 0.093,-0.112 0.093,-0.18L0.093,-0.477L0.027,-0.477L0.027,-0.547L0.093,-0.547L0.093,-0.702L0.183,-0.702Z" style="fill:white;fill-rule:nonzero;"/>
        </g>
        <g transform="matrix(18.75,0,0,18.75,144.584,64.5971)">
            <path d="M0.562,-0.296L0.562,-0.252L0.149,-0.252C0.153,-0.19 0.171,-0.143 0.205,-0.111C0.238,-0.078 0.285,-0.062 0.344,-0.062C0.379,-0.062 0.412,-0.066 0.445,-0.075C0.477,-0.083 0.509,-0.096 0.541,-0.113L0.541,-0.028C0.509,-0.014 0.476,-0.004 0.442,0.003C0.408,0.011 0.374,0.014 0.339,0.014C0.252,0.014 0.183,-0.011 0.132,-0.062C0.081,-0.113 0.055,-0.181 0.055,-0.268C0.055,-0.358 0.079,-0.429 0.128,-0.481C0.176,-0.534 0.241,-0.56 0.323,-0.56C0.397,-0.56 0.455,-0.536 0.498,-0.489C0.541,-0.442 0.562,-0.377 0.562,-0.296ZM0.472,-0.322C0.472,-0.371 0.458,-0.411 0.431,-0.44C0.404,-0.469 0.368,-0.484 0.324,-0.484C0.274,-0.484 0.234,-0.47 0.204,-0.441C0.174,-0.413 0.156,-0.373 0.152,-0.322L0.472,-0.322Z" style="fill:white;fill-rule:nonzero;"/>
        </g>
        <g transform="matrix(18.75,0,0,18.75,156.12,64.5971)">
            <path d="M0.343,-0.275C0.27,-0.275 0.22,-0.267 0.192,-0.25C0.164,-0.233 0.15,-0.205 0.15,-0.165C0.15,-0.133 0.16,-0.108 0.181,-0.089C0.202,-0.07 0.231,-0.061 0.267,-0.061C0.317,-0.061 0.357,-0.079 0.387,-0.114C0.417,-0.149 0.432,-0.196 0.432,-0.255L0.432,-0.275L0.343,-0.275ZM0.522,-0.312L0.522,-0L0.432,-0L0.432,-0.083C0.412,-0.05 0.386,-0.025 0.355,-0.01C0.325,0.006 0.287,0.014 0.243,0.014C0.187,0.014 0.143,-0.002 0.11,-0.033C0.077,-0.064 0.06,-0.106 0.06,-0.159C0.06,-0.221 0.081,-0.267 0.122,-0.298C0.163,-0.33 0.224,-0.345 0.306,-0.345L0.432,-0.345L0.432,-0.354C0.432,-0.395 0.419,-0.427 0.391,-0.45C0.364,-0.473 0.326,-0.484 0.277,-0.484C0.246,-0.484 0.215,-0.48 0.186,-0.473C0.156,-0.465 0.127,-0.454 0.1,-0.439L0.1,-0.522C0.133,-0.535 0.165,-0.544 0.196,-0.551C0.227,-0.557 0.257,-0.56 0.286,-0.56C0.365,-0.56 0.424,-0.54 0.463,-0.499C0.502,-0.458 0.522,-0.395 0.522,-0.312Z" style="fill:white;fill-rule:nonzero;"/>
        </g>
        <g transform="matrix(18.75,0,0,18.75,167.609,64.5971)">
            <path d="M0.52,-0.442C0.542,-0.482 0.569,-0.512 0.601,-0.531C0.632,-0.55 0.669,-0.56 0.711,-0.56C0.768,-0.56 0.812,-0.54 0.843,-0.5C0.874,-0.46 0.889,-0.404 0.889,-0.33L0.889,-0L0.799,-0L0.799,-0.327C0.799,-0.38 0.79,-0.418 0.771,-0.444C0.752,-0.469 0.724,-0.482 0.686,-0.482C0.639,-0.482 0.603,-0.466 0.576,-0.436C0.549,-0.405 0.535,-0.362 0.535,-0.309L0.535,-0L0.445,-0L0.445,-0.327C0.445,-0.38 0.436,-0.419 0.417,-0.444C0.398,-0.469 0.37,-0.482 0.331,-0.482C0.285,-0.482 0.249,-0.466 0.222,-0.435C0.195,-0.404 0.181,-0.362 0.181,-0.309L0.181,-0L0.091,-0L0.091,-0.547L0.181,-0.547L0.181,-0.462C0.202,-0.495 0.226,-0.52 0.255,-0.536C0.284,-0.552 0.318,-0.56 0.357,-0.56C0.397,-0.56 0.43,-0.55 0.458,-0.53C0.486,-0.51 0.507,-0.48 0.52,-0.442Z" style="fill:white;fill-rule:nonzero;"/>
        </g>
    </g>
</svg>
